<svg id="Слой_1" data-name="Слой 1" xmlns="http://www.w3.org/2000/svg" viewBox="0 0 2000 2000"><defs><style>.cls-1{fill:#f2e0ad;}.cls-14,.cls-2{fill:#fff;}.cls-16,.cls-18,.cls-19,.cls-2,.cls-20,.cls-22,.cls-23,.cls-4,.cls-5,.cls-6,.cls-7,.cls-8,.cls-9{stroke:#003a47;}.cls-16,.cls-19,.cls-2,.cls-20,.cls-4,.cls-5,.cls-6,.cls-7,.cls-8,.cls-9{stroke-linejoin:round;}.cls-16,.cls-18,.cls-19,.cls-2,.cls-20,.cls-21,.cls-22,.cls-23,.cls-4,.cls-5,.cls-6,.cls-7,.cls-8,.cls-9{stroke-width:3px;}.cls-16,.cls-3{fill:#f2d300;}.cls-13,.cls-21,.cls-23,.cls-4{fill:none;}.cls-13,.cls-21,.cls-4{stroke-linecap:round;}.cls-10,.cls-5{fill:#cedffb;}.cls-15,.cls-6{fill:#85aff6;}.cls-7{fill:#94424f;}.cls-12,.cls-8{fill:#003a47;}.cls-17,.cls-9{fill:#ff7a00;}.cls-11,.cls-18{fill:#638000;}.cls-13{stroke:#fff;stroke-width:4px;}.cls-13,.cls-18,.cls-21,.cls-22,.cls-23{stroke-miterlimit:10;}.cls-19{fill:#5e4650;}.cls-20,.cls-24{fill:#c46855;}.cls-21{stroke:#be5c4b;}.cls-22{fill:#ffc4c8;}</style></defs><g id="FLOOR"><rect class="cls-1" x="343.29" y="1331.72" width="1303.43" height="377.67"/><rect class="cls-2" x="928.89" y="1406.63" width="646.23" height="186.82"/><rect class="cls-3" x="999.09" y="1409.37" width="52.58" height="181.35"/><rect class="cls-3" x="1112.17" y="1409.37" width="52.58" height="181.35"/><rect class="cls-3" x="1225.25" y="1409.37" width="52.58" height="181.35"/><rect class="cls-3" x="1338.33" y="1409.37" width="52.58" height="181.35"/><rect class="cls-3" x="1451.42" y="1409.37" width="52.58" height="181.35"/><circle class="cls-4" cx="917.48" cy="1410.82" r="4.19"/><circle class="cls-4" cx="917.48" cy="1470.3" r="4.19"/><circle class="cls-4" cx="917.48" cy="1529.78" r="4.19"/><circle class="cls-4" cx="917.48" cy="1589.26" r="4.19"/><line class="cls-4" x1="906.91" y1="1410.82" x2="897.05" y2="1410.82"/><line class="cls-4" x1="906.91" y1="1413.98" x2="897.05" y2="1417.15"/><line class="cls-4" x1="897.05" y1="1404.49" x2="906.91" y2="1407.66"/><line class="cls-4" x1="906.91" y1="1470.3" x2="897.05" y2="1470.3"/><line class="cls-4" x1="906.91" y1="1473.47" x2="897.05" y2="1476.63"/><line class="cls-4" x1="897.05" y1="1463.98" x2="906.91" y2="1467.14"/><line class="cls-4" x1="906.91" y1="1529.78" x2="897.05" y2="1529.78"/><line class="cls-4" x1="906.91" y1="1532.95" x2="897.05" y2="1536.11"/><line class="cls-4" x1="897.05" y1="1523.46" x2="906.91" y2="1526.62"/><line class="cls-4" x1="906.91" y1="1589.26" x2="897.05" y2="1589.26"/><line class="cls-4" x1="906.91" y1="1592.43" x2="897.05" y2="1595.59"/><line class="cls-4" x1="897.05" y1="1582.94" x2="906.91" y2="1586.1"/><circle class="cls-4" cx="1586.59" cy="1410.82" r="4.19"/><circle class="cls-4" cx="1586.59" cy="1470.3" r="4.19"/><circle class="cls-4" cx="1586.59" cy="1529.78" r="4.19"/><circle class="cls-4" cx="1586.59" cy="1589.26" r="4.19"/><line class="cls-4" x1="1597.16" y1="1410.82" x2="1607.01" y2="1410.82"/><line class="cls-4" x1="1597.16" y1="1413.98" x2="1607.01" y2="1417.15"/><line class="cls-4" x1="1607.01" y1="1404.49" x2="1597.16" y2="1407.66"/><line class="cls-4" x1="1597.16" y1="1470.3" x2="1607.01" y2="1470.3"/><line class="cls-4" x1="1597.16" y1="1473.47" x2="1607.01" y2="1476.63"/><line class="cls-4" x1="1607.01" y1="1463.98" x2="1597.16" y2="1467.14"/><line class="cls-4" x1="1597.16" y1="1529.78" x2="1607.01" y2="1529.78"/><line class="cls-4" x1="1597.16" y1="1532.95" x2="1607.01" y2="1536.11"/><line class="cls-4" x1="1607.01" y1="1523.46" x2="1597.16" y2="1526.62"/><line class="cls-4" x1="1597.16" y1="1589.26" x2="1607.01" y2="1589.26"/><line class="cls-4" x1="1597.16" y1="1592.43" x2="1607.01" y2="1595.59"/><line class="cls-4" x1="1607.01" y1="1582.94" x2="1597.16" y2="1586.1"/></g><g id="COUCH"><path class="cls-5" d="M1546.17,1302.78H978a53.8,53.8,0,0,1-51.72-39L878.8,1098.43a33.8,33.8,0,0,1,32.48-43.13h701.61a33.8,33.8,0,0,1,32.49,43.13l-47.49,165.39A53.8,53.8,0,0,1,1546.17,1302.78Z"/><path class="cls-6" d="M1517.64,1256.51h-511.1a38.08,38.08,0,0,1-36.6-27.56l-38.81-135.17a30.15,30.15,0,0,1,29-38.48h603.95a30.16,30.16,0,0,1,29,38.48L1554.23,1229A38.06,38.06,0,0,1,1517.64,1256.51Z"/><path class="cls-6" d="M1449,1171.24H1075.23a48.44,48.44,0,0,1-46.56-35.08l-32.94-114.7a57.23,57.23,0,0,1,55-73h422.71a57.23,57.23,0,0,1,55,73l-32.94,114.7A48.44,48.44,0,0,1,1449,1171.24Z"/><path class="cls-4" d="M1548.9,1240.18l-29-39.75a71,71,0,0,0-57.41-29.19H1061.66a71,71,0,0,0-57.4,29.19l-29,39.75"/><polygon class="cls-7" points="1024.27 1365.46 1011.73 1365.46 1013.25 1302.78 1056.76 1302.78 1024.27 1365.46"/><polygon class="cls-7" points="1499.91 1365.46 1512.45 1365.46 1510.92 1302.78 1467.42 1302.78 1499.91 1365.46"/><polygon class="cls-8" points="1013.25 1302.78 1056.76 1302.78 1050.67 1314.53 1013.11 1308.65 1013.25 1302.78"/><polygon class="cls-8" points="1510.92 1302.78 1467.42 1302.78 1473.51 1314.53 1511.07 1308.65 1510.92 1302.78"/><path class="cls-2" d="M1206.53,1015.29c-28.88,2.28-60.14,3.63-93.49,3.46-29.14-.15-56.65-1.43-82.31-3.46,5.79,24.6,11.1,51.46,15.37,80.4,4.16,28.12-7.45,35.65-1.62,79.26,22.15,1.5,45.46,2.46,69.83,2.68,32.43.29,63.07-.75,91.68-2.68a663.88,663.88,0,0,0,.54-159.66Z"/><path class="cls-8" d="M1206,1175l20.87-3.71-20.33-156a664.1,664.1,0,0,1,4.22,98.65C1210.06,1135.72,1208.33,1156.11,1206,1175Z"/><path class="cls-9" d="M1160.67,1057.66l2.9-2.12a13.78,13.78,0,0,1,21.83,12.6l-.39,3.57,3.28,1.45a13.77,13.77,0,0,1,0,25.2l-3.28,1.45.39,3.57a13.78,13.78,0,0,1-21.83,12.61l-2.9-2.13-2.9,2.13a13.78,13.78,0,0,1-21.83-12.61l.39-3.57-3.28-1.45a13.77,13.77,0,0,1,0-25.2l3.28-1.45-.39-3.57a13.78,13.78,0,0,1,21.83-12.6Z"/><circle class="cls-3" cx="1160.67" cy="1085.76" r="8.42"/><path class="cls-9" d="M1133.76,1174.2l-2.64,3.46q-16.29.09-33.35-.3-13.55-.3-26.61-.91a15.61,15.61,0,0,1-.83-16c2.47-4.86,7.31-8.36,13.38-7.83l3.71.32,1.42-3.44A14.28,14.28,0,0,1,1115,1149l1.58,3.37,3.69-.48A14.27,14.27,0,0,1,1133.76,1174.2Z"/><path class="cls-3" d="M1091.3,1175.61a9.19,9.19,0,1,1,18.37.35Z"/><path class="cls-9" d="M1092.46,1039.32l-4.11.81-.47,4.16a16.06,16.06,0,0,1-28.05,8.77l-2.75-3.15-3.84,1.66a15.74,15.74,0,0,1-14.91-1.08q-3.6-18.3-7.6-35.2c23.19,1.83,47.89,3.06,74,3.38A16.07,16.07,0,0,1,1092.46,1039.32Z"/><path class="cls-3" d="M1072.55,1019.44a9,9,0,1,1-17.92-.89Z"/><line class="cls-4" x1="1046.1" y1="1095.69" x2="1051.29" y2="1123.1"/></g><g id="WINDOW"><rect class="cls-10" x="365.52" y="404.01" width="457.11" height="758.05"/><path class="cls-11" d="M637.77,404H822.63V627c-41.58,18.92-90.33,6.67-116.53-28.13-23.41-31.1-24.74-74.8-2.93-108.89-9.71-4-37.13-16.91-53.63-47.41A102.8,102.8,0,0,1,637.77,404Z"/><path class="cls-11" d="M391.74,1162.06c3.38-20.62,17.66-37.62,36.91-43.94a53,53,0,0,1,55.06,14.21c-5.1-33.76,13.32-66.52,43.17-78.19,32-12.52,69.38,2.22,85.71,34.86,4.85-1,22.21-4,37.53,6.5,13.64,9.35,21.59,26.61,21.47,45.7-.05,6.81,0,20.86,0,20.86Z"/><rect class="cls-4" x="343.29" y="378.26" width="503.93" height="809.56"/><path class="cls-11" d="M441.55,852.39c12,20.35,10.87,45.45-2.53,62.91-16.25,21.16-47.84,27.53-73.5,13.07V529.8c8.91-15.43,27.14-20.92,39.71-14.93,14.73,7,21.6,29.79,9.29,47.34,24.68-4.42,47.43,7.84,54.06,25.32,8.37,22.05-8.15,54.45-41.39,60.82a39.26,39.26,0,0,1,22,12.67c11.89,13.87,8.9,31,8.45,33.35,36.59,13.76,58.71,51,53.31,88.67C505.86,818.31,477.65,846.72,441.55,852.39Z"/><line class="cls-4" x1="518.03" y1="404.01" x2="518.03" y2="1162.06"/><line class="cls-4" x1="672.35" y1="404.8" x2="672.35" y2="1162.85"/><path class="cls-11" d="M698.16,1162.85l124.47-.79V1058.57c-34.62-17.19-76-11-102.45,15C697,1096.33,688.56,1130.84,698.16,1162.85Z"/><path class="cls-11" d="M393.14,455.84h10.55a0,0,0,0,1,0,0v10.55a15.25,15.25,0,0,1-15.25,15.25H377.89a0,0,0,0,1,0,0V471.09A15.25,15.25,0,0,1,393.14,455.84Z"/><path class="cls-11" d="M647,499.6h10.55a0,0,0,0,1,0,0v10.55a15.25,15.25,0,0,1-15.25,15.25H631.72a0,0,0,0,1,0,0V514.85A15.25,15.25,0,0,1,647,499.6Z"/><path class="cls-11" d="M441.51,1064.18h15.16a11.16,11.16,0,0,1,11.16,11.16v15.16a0,0,0,0,1,0,0H452.66a11.16,11.16,0,0,1-11.16-11.16v-15.16A0,0,0,0,1,441.51,1064.18Z"/><path class="cls-11" d="M822.63,1066.31a39.41,39.41,0,0,1,0-70.34Z"/><path class="cls-12" d="M448.58,870.52a34.84,34.84,0,0,1-24.18-11.84,33.06,33.06,0,0,1-6.17-10.78c4.09,2.42,11.25,4.23,23.32,4.49a38.72,38.72,0,0,1,7,18.13Z"/><path class="cls-12" d="M427.19,648.35c-12.19,1.68-17.64,0-17.64,0a37.71,37.71,0,0,0,10.74,6,39.35,39.35,0,0,0,22.71,1,39.94,39.94,0,0,0-15.81-7Z"/><path class="cls-12" d="M696.37,502.5a71.53,71.53,0,0,1,3.2-6.62c1.19-2.19,2.41-4.16,3.6-5.91,9.13,2,17,0,20.32-2.29a44.37,44.37,0,0,1-14.56,11.06A43.92,43.92,0,0,1,696.37,502.5Z"/><line class="cls-13" x1="560.75" y1="621.67" x2="642.76" y2="551.91"/><line class="cls-13" x1="538.48" y1="640.61" x2="543.01" y2="636.76"/><line class="cls-13" x1="407.38" y1="752.13" x2="496.84" y2="676.03"/><line class="cls-13" x1="560.75" y1="663.24" x2="622.75" y2="610.5"/><line class="cls-13" x1="393.89" y1="1086.97" x2="483.35" y2="1010.87"/><line class="cls-13" x1="560.03" y1="928.08" x2="649.49" y2="851.98"/><line class="cls-4" x1="365.52" y1="985.42" x2="821.23" y2="985.42"/><line class="cls-4" x1="365.52" y1="783.04" x2="821.23" y2="783.04"/><line class="cls-4" x1="365.52" y1="580.65" x2="821.23" y2="580.65"/></g><g id="PICTURE"><rect class="cls-4" x="1489.93" y="378.26" width="150.04" height="173.3"/><rect class="cls-14" x="1502.86" y="393.51" width="124.19" height="142.8"/><rect class="cls-10" x="1502.86" y="393.51" width="124.19" height="142.8"/><path class="cls-15" d="M1502.86,536.31V492.49l34.31-25.79a20,20,0,0,1,26.18,1.8l33,32.81L1627.05,490v46.29Z"/><circle class="cls-14" cx="1596.07" cy="437.67" r="15.45"/><path class="cls-12" d="M1596.37,501.31l-16.44,5.76a9.41,9.41,0,0,1-12.53-8.89V472.52Z"/></g><g id="ICONS"><rect class="cls-8" x="801.9" y="300.62" width="341.73" height="106.41" rx="53.21"/><rect class="cls-6" x="792.9" y="290.62" width="341.73" height="106.41" rx="53.21"/><circle class="cls-6" cx="844.3" cy="432.45" r="11.89"/><polygon class="cls-16" points="876.98 314.33 885.48 331.56 904.5 334.32 890.74 347.74 893.98 366.68 876.98 357.73 859.97 366.68 863.22 347.74 849.46 334.32 868.47 331.56 876.98 314.33"/><polygon class="cls-16" points="964.1 315.65 972.6 332.88 991.62 335.65 977.86 349.06 981.1 368 964.1 359.06 947.09 368 950.34 349.06 936.58 335.65 955.59 332.88 964.1 315.65"/><polygon class="cls-16" points="1051.22 314.33 1059.72 331.56 1078.74 334.32 1064.98 347.74 1068.22 366.68 1051.22 357.73 1034.21 366.68 1037.46 347.74 1023.7 334.32 1042.71 331.56 1051.22 314.33"/><polygon class="cls-2" points="1310.84 605.06 1253.6 542.82 1291.4 513.53 1248.56 509.65 1271.16 446.32 1214.88 486.41 1173.33 423.45 1179.84 494.36 1107.18 479.57 1164.68 529.24 1099.33 555.12 1177.67 558.6 1182.03 606.26 1218.91 566.82 1310.84 605.06"/><polygon class="cls-17" points="1197.54 500.35 1214.72 500.35 1209.23 536.9 1202.58 536.9 1197.54 500.35"/><circle class="cls-17" cx="1205.58" cy="547.71" r="5"/><circle class="cls-16" cx="643.16" cy="440.64" r="17.19"/><circle class="cls-16" cx="689.47" cy="481.42" r="7.26"/><path class="cls-8" d="M543.85,308.79l7.32-5.36c24.43-17.88,58.46,1.77,55.19,31.86l-1,9,8.3,3.66c27.7,12.21,27.7,51.51,0,63.72l-8.3,3.66,1,9c3.27,30.09-30.76,49.74-55.19,31.86l-7.32-5.37-7.33,5.37c-24.42,17.88-58.45-1.77-55.18-31.86l1-9L474,411.7c-27.7-12.21-27.7-51.51,0-63.72l8.3-3.66-1-9c-3.27-30.09,30.76-49.74,55.18-31.86Z"/><path class="cls-16" d="M536.8,305.53l7.16-5.25c23.9-17.49,57.2,1.74,54,31.18l-1,8.83,8.13,3.58c27.1,11.95,27.1,50.41,0,62.36L597,409.81l1,8.83c3.2,29.44-30.1,48.67-54,31.18l-7.16-5.25-7.17,5.25c-23.9,17.49-57.2-1.74-54-31.18l1-8.83-8.13-3.58c-27.1-12-27.1-50.41,0-62.36l8.13-3.58-1-8.83c-3.2-29.44,30.1-48.67,54-31.18Z"/><polygon class="cls-9" points="552.17 388.53 504 388.53 504 358.8 528.09 340.35 552.17 358.8 552.17 388.53"/><rect class="cls-14" x="520.01" y="358.69" width="5.77" height="5.77"/><rect class="cls-14" x="530.39" y="358.69" width="5.77" height="5.77"/><rect class="cls-14" x="520.01" y="369.07" width="5.77" height="5.77"/><rect class="cls-14" x="530.39" y="369.07" width="5.77" height="5.77"/><polygon class="cls-2" points="547.87 383.23 553.37 371.27 558.49 383.4 571.6 382.18 563.66 392.68 571.27 403.41 558.21 401.79 552.71 413.75 547.59 401.63 534.48 402.85 542.42 392.35 534.81 381.61 547.87 383.23"/></g><g id="MAN"><path class="cls-18" d="M1359.73,1708.38h-13.36c-14.09,0-24.66-7.63-33.18-7.63-10.49,0-18.7,7.63-43.93,7.63h-16.54c-15,0-34.19,0-45.26-6.59-7.25-4.32-5.08-15.4,3.22-16.94,11.58-2.15,32.33-7.57,47.2-21.47,14.41-13.48,18-23.35,18.93-36.67a137.1,137.1,0,0,0,72.67,0,167.07,167.07,0,0,0,20.2,64.91A11.33,11.33,0,0,1,1359.73,1708.38Z"/><path class="cls-2" d="M1359.73,1708.38h-13.36c-14.09,0-24.66-7.63-33.18-7.63-10.49,0-18.7,7.63-43.93,7.63h-16.54c-15,0-34.19,0-45.26-6.59a9.15,9.15,0,0,1-2.32-13.66h0c-2.08,7.36,22.73,10.36,39.77,10.36,37.16,0,62.35-19.38,121.9-12.29v0c.93,1.85,1.89,3.65,2.85,5.4A11.33,11.33,0,0,1,1359.73,1708.38Z"/><path class="cls-18" d="M1456.59,1631.38c.77,11.68-2,29.7-17.74,45.4-12.44,12.38-14.83,15.18-14.86,20.73,0,7.5,16.08,10.87,66.12,10.87s59.15-3.05,57.33-12.87c-1.06-5.72-28-35-28.52-64a176.75,176.75,0,0,1-31.84,3.15A129.65,129.65,0,0,1,1456.59,1631.38Z"/><path class="cls-2" d="M1490.12,1708.38c-50.06,0-66.17-3.37-66.13-10.87,0-3,.73-5.21,3.36-8.56,8.17,7,31.88-2.35,61.61-2.51,22.15-.12,37.08,4.53,56.52,5.11h0a14.85,14.85,0,0,1,2,4C1549.26,1705.32,1540.16,1708.38,1490.12,1708.38Z"/><path class="cls-19" d="M1326.64,984.68s-46.15,238.54-50.76,287.37-49.73,308.61,0,337.16l.92,17.5s34,11,72.68,0l1-14s16.33-5.83,26.53-40.33S1407.63,1447,1407.63,1447s20.66,151.15,47.19,171l1.4,13.32s36.61,7.94,66.74-1l1-13.83s20.7-74.56,20.69-171.48c0-81.63-17-102.65-20.69-131.63-6.3-49.8,26.61-191.36-19.42-304-5.32-13-20.87-35.6-20.87-35.6s-39.27-4.08-76.29,1C1367.08,980.37,1341.48,984.68,1326.64,984.68Z"/><path class="cls-4" d="M1407.63,1447c-3-35.75-36-331.66-41.84-336.76a40,40,0,0,0-13.12-7.29"/><path class="cls-4" d="M1275.88,1609.21c10.59,11.28,74.6,3.51,74.6,3.51"/><path class="cls-4" d="M1454.82,1618.06c34.57,8.65,69.14-1.51,69.14-1.51"/><path class="cls-16" d="M1365.33,658.86l95.58-16.49,96.3,32.89a65.35,65.35,0,0,1,34.51,27.86c22.08,36.37,65.4,135.72,65,166.79-.55,41.68-108.29,131.52-108.29,131.52l-12.36,21.13a153.34,153.34,0,0,1-28.33-11.08A151.48,151.48,0,0,1,1486,998q4.73-8.82,9.47-17.64s2-61.37,48.26-116.26c0,0-1.1-7.63,3.79-8.45l-20.38-23.91S1502,964.37,1483.67,973.83c0,0-37.36-5.68-76.29-1s-56.23,11.85-80.74,11.85c0,0-19.47-8.08-25.23-44.12,0,0-16.25,32-54.83,31.72-50-.31-133-121-131-150.93l-2-15.28a74.33,74.33,0,0,0,37.17-28.74q3.29,3.76,6.55,7.54s33.29,1.19,66,50.3c0,0,.62-8.81,8.43-6.21,0,0,14.34-110.1,31.43-129.46C1278.43,682.23,1365.33,658.86,1365.33,658.86Z"/><path class="cls-2" d="M1115.57,821.35a47,47,0,0,0,41.72-36.48l-6.55-7.54a74.49,74.49,0,0,1-37.17,28.74Q1114.56,813.71,1115.57,821.35Z"/><path class="cls-4" d="M1301.41,940.56c-4.2-19.18-18-141.63-18-141.63"/><line class="cls-4" x1="1527.15" y1="831.71" x2="1509.92" y2="809.28"/><line class="cls-4" x1="1547.53" y1="855.62" x2="1559.77" y2="865.43"/><path class="cls-4" d="M1231.76,829a34.48,34.48,0,0,1,7.3,7"/><path class="cls-2" d="M1322.89,982.41l-3.54,18s14.72,8.11,53.45-1.43c47.6-11.73,68.51-18.68,116.71-16.35l-5.84-8.83a297.8,297.8,0,0,0-76.29-1C1369.56,977.25,1331.68,983.41,1322.89,982.41Z"/><path class="cls-2" d="M1344.87,664.69l20.46-5.83a129.56,129.56,0,0,0,38.74,1.46c23.19-2.64,46.68-12,56.84-18l19.46,6.72c-12.74,8.24-49,26.2-89.59,24.92A140.52,140.52,0,0,1,1344.87,664.69Z"/><path class="cls-2" d="M1495.48,980.33s29.5,19.82,52.94,21.1l-12.36,21.13a153.34,153.34,0,0,1-28.33-11.08A151.48,151.48,0,0,1,1486,998Q1490.74,989.15,1495.48,980.33Z"/><path class="cls-2" d="M1303.66,777.68h49a0,0,0,0,1,0,0V821a12.53,12.53,0,0,1-12.53,12.53H1316.2A12.53,12.53,0,0,1,1303.66,821V777.68A0,0,0,0,1,1303.66,777.68Z"/><path class="cls-20" d="M1486,998l-35.54,44.47a5.31,5.31,0,0,0,1.79,8.08h0a5.33,5.33,0,0,0,5.08-.2l22.59-13.47,40.24,24.19,15.89-38.48a153.34,153.34,0,0,1-28.33-11.08A151.48,151.48,0,0,1,1486,998Z"/><path class="cls-20" d="M1126.64,719.28l-23.47-24.91-2,1.8a8.57,8.57,0,0,0-1.51,11l8.86,14-.69,12.71-46.72-36.05a4.32,4.32,0,0,0-5.11-.27,4.24,4.24,0,0,0-.77,6.35l23.93,28.71-38.87-21.67a6.29,6.29,0,0,0-8,1.56l-.08.1a6.38,6.38,0,0,0-.12,7.85l.6.8-1.42,1.36a8.1,8.1,0,0,0-.14,11.59l33.39,33.39-30.18-12.42a4.54,4.54,0,0,0-5.64,1.74,4.42,4.42,0,0,0,1.76,6.19,262.5,262.5,0,0,0,83.08,43,74.49,74.49,0,0,0,37.17-28.74l-17.51-47.43A31.23,31.23,0,0,0,1126.64,719.28Z"/><path class="cls-4" d="M1107.84,733.85c0,12.69,3.16,20.88,3.16,20.88"/><line class="cls-4" x1="1032.72" y1="721.23" x2="1065.35" y2="744.29"/><path class="cls-7" d="M1359.77,505a216,216,0,0,0,29.66,5.29,208.28,208.28,0,0,0,46.66-.24,40.14,40.14,0,0,0-7.08,25.71c.94,14.84,9.33,20.84,11.75,23.6l14.77-1.53c1.11-6.52,2-9.44,2.6-17,.38-5,.59-9.83.66-14.5.22-14.17-8.43-27.79-21.77-34.06-13.83-6.49-32.68-12.17-51.15-7.78C1367.77,488.75,1361.21,498.87,1359.77,505Z"/><path class="cls-20" d="M1445.64,585.55c10.88-4.78,16.65-17.19,15.52-22.23-2.37-10.61-11.4-12-20.4-4a36.32,36.32,0,0,1-11.75-23.6,38.78,38.78,0,0,1,7.08-25.71,208,208,0,0,1-44.08.5,215.69,215.69,0,0,1-32.24-5.55c-4.15,16.46-7.94,28.7-12.92,46.21a31.37,31.37,0,0,0,.47,18.45,164.69,164.69,0,0,1,8.21,44.45,13,13,0,0,0,4.43,7.45,12.78,12.78,0,0,0,8.17,2.93h2.59l-5.39,34.38a118.68,118.68,0,0,0,37.77,1.42c23.91-2.75,47.6-12.52,57.64-18.69Z"/><path class="cls-4" d="M1369.36,624.48h8.82a37.19,37.19,0,0,0,11.51-1.82l33.08-11a14.25,14.25,0,0,0,9.28-9.86l1.07-4"/><path class="cls-4" d="M1374.64,542.51s-11,29.68-5.55,31.3,12-2.19,12-2.19"/><path class="cls-4" d="M1371.58,581.68s6,1,13.93-3.84c3.36-2.05,2.74,13.59-11.43,14.69"/><ellipse class="cls-12" cx="1392.95" cy="552.37" rx="2.08" ry="2.58"/><ellipse class="cls-12" cx="1360.67" cy="551.33" rx="2.08" ry="2.58"/><line class="cls-4" x1="1449.76" y1="565.32" x2="1441.52" y2="570.66"/><path class="cls-8" d="M1418.09,613.43l-32.5,10.28a17,17,0,0,1-5,.77h-9.82l-2.45,15.66Z"/></g><g id="AGENT"><path class="cls-19" d="M744,1706.14l.08,2.24H636.65l-2.92-4.33a3.78,3.78,0,0,0-3.12-1.68h-5.9a3.5,3.5,0,0,0-3.15,1.94l-2,4.07H586.77l2-6.42,11.67-37.83h78.05c2.15,8.11,7,13.35,15.84,19,14.7,9.52,31.42,13.69,43.5,15.87a7.53,7.53,0,0,1,6.15,7.09Z"/><polygon class="cls-8" points="678.48 1664.13 600.43 1664.13 596.81 1675.83 678.48 1664.13"/><path class="cls-8" d="M742.49,1702a7.38,7.38,0,0,1,1.48,4.18l.08,2.24H636.65l-2.92-4.33a3.78,3.78,0,0,0-3.12-1.68h-5.9a3.5,3.5,0,0,0-3.15,1.94l-2,4.07H586.77l2-6.42Z"/><line class="cls-21" x1="670.1" y1="1679.76" x2="685.89" y2="1670.83"/><line class="cls-21" x1="675.37" y1="1686.07" x2="691.27" y2="1677.2"/><path class="cls-19" d="M905,1706.14l.08,2.24h-98.4l-2.92-4.33a3.78,3.78,0,0,0-3.12-1.68h-5.9a3.5,3.5,0,0,0-3.15,1.94l-2,4.07H759.77l1-6.42,5.69-37.83h73.05c2.15,8.11,7,13.35,15.84,19,14.7,9.52,31.42,13.69,43.5,15.87a7.53,7.53,0,0,1,6.15,7.09Z"/><polygon class="cls-8" points="839.48 1664.13 766.43 1664.13 764.67 1675.83 839.48 1664.13"/><path class="cls-8" d="M905,1706.14l.08,2.24h-98.4l-2.92-4.33a3.78,3.78,0,0,0-3.12-1.68h-5.9a3.5,3.5,0,0,0-3.15,1.94l-2,4.07H759.77l1-6.42H903.49A7.38,7.38,0,0,1,905,1706.14Z"/><line class="cls-21" x1="831.4" y1="1679.3" x2="846.42" y2="1670.73"/><line class="cls-21" x1="836.79" y1="1686.13" x2="852.81" y2="1677.3"/><path class="cls-2" d="M951.68,902.47c-3.71,27-14.82,52.09-44.43,57.57-23,4.25-46-7.54-56.79-28.27l-15.31-29.38-13.31,50.09H662.94L635.72,846.35l1.78,16.12L644,879A319.13,319.13,0,0,0,571.12,954a10.13,10.13,0,0,1-15.41,1.45c-11.79-11.52-21.78-29.23-21.78-29.23l7.94-6.2c-5.19-28.47-11.3-78.78-.61-129.35,7.78-36.82,23.18-69.66,35.27-91.49A86.26,86.26,0,0,1,619.83,661l88.43-35.57,17.41-21L772,637.84l39.45-21.42L819,639.83l25.71,23,18.22,7.78a76.86,76.86,0,0,1,44.81,53.85l28.64,113.5H943a18.14,18.14,0,0,0,18-16.18l2.75-25.24Z"/><path class="cls-2" d="M951.68,902.47c-3.71,27-14.82,52.09-44.43,57.57-23,4.25-46-7.54-56.79-28.27l-15.31-29.38-13.31,50.09H662.94L635.72,846.35l1.78,16.12L644,879A319.13,319.13,0,0,0,571.12,954a10.13,10.13,0,0,1-15.41,1.45c-11.79-11.52-21.78-29.23-21.78-29.23l7.94-6.2c-5.19-28.47-11.3-78.78-.61-129.35,7.78-36.82,23.18-69.66,35.27-91.49A86.26,86.26,0,0,1,619.83,661l88.43-35.57,17.41-21L772,637.84l39.45-21.42L819,639.83l25.71,23,18.22,7.78a76.86,76.86,0,0,1,44.81,53.85l28.64,113.5H943a18.14,18.14,0,0,0,18-16.18Z"/><polyline class="cls-4" points="708.26 625.38 748.99 660.58 772 637.84 791.55 660.58 816.99 638.83"/><polygon class="cls-19" points="772 637.84 786.57 654.79 774.07 668 791.09 725.39 775.04 773.35 747.51 726.22 768.39 668.18 755.17 654.47 772 637.84"/><path class="cls-2" d="M637.5,862.47,644,879a319.39,319.39,0,0,0-73.25,75.42A9.59,9.59,0,0,1,556.29,956c-12-11.49-22.36-29.78-22.36-29.78,16.2-12.83,19.26-14.54,38.9-27.73C593.2,884.8,618.89,872.87,637.5,862.47Z"/><path class="cls-20" d="M665.24,947.57a351.83,351.83,0,0,0-33.31,63.29c-3.16,7.85-5.91,15.5-8.31,22.88a214.27,214.27,0,0,0-10.38,64.11c-.89,84.46,1.22,158.52,4.62,238.62l-15.44,41.39A171.9,171.9,0,0,0,591.75,1444l7,199.48h-7.21l4.47,20.66h89.5l3.74-18.15-4.38-.06,24.57-241.48,6.84-10.23a22.1,22.1,0,0,0,3.49-9l11.76-79.32,22.62,72-10.65,36.65a95,95,0,0,0-3.34,35l17.38,192.74-5.31.53,4.47,21.34h87.79s17.68-291.71,19.54-314.58-45.33-402-45.33-402Z"/><path class="cls-4" d="M738.45,1265.86l32.32,101.46a34.83,34.83,0,0,1,0,21.07l-8.31,26.11a95,95,0,0,0-3.34,35l17.38,192.74"/><line class="cls-4" x1="731.5" y1="1305.86" x2="765.48" y2="1090.19"/><line class="cls-4" x1="757.51" y1="1642.27" x2="845.82" y2="1642.27"/><line class="cls-4" x1="591.51" y1="1643.48" x2="684.84" y2="1645.93"/><polygon class="cls-8" points="720.3 1020.35 649.71 972.89 644.03 984.09 720.3 1020.35"/><path class="cls-4" d="M663.61,991.3l-13.9,38a193,193,0,0,0-11.73,68l2.08,239.87-18.29,48.25a168.28,168.28,0,0,0-10.88,62.52l3.43,195.61"/><path class="cls-6" d="M649.71,972.89l-14-126.54a239.89,239.89,0,0,0,2.49-193.08c17.68-6.53,36.37-15.07,54-21.6L775,773.35l44.84-132.83L844.7,662.8c5,20.06,7.31,43.58,10.42,68.63a575.53,575.53,0,0,1,4.32,79.51q-18.81,70.77-37.6,141.54l-.32,31-29.88,36.9L761.52,973l-41.22,47.31Z"/><polygon class="cls-10" points="700.16 648.16 700.16 662.33 697.16 662.33 697.16 643.03 698.1 644.63 700.16 648.16"/><rect class="cls-10" x="697.16" y="665.33" width="3" height="17.7"/><rect class="cls-10" x="697.16" y="686.03" width="3" height="17.7"/><rect class="cls-10" x="697.16" y="706.73" width="3" height="17.7"/><rect class="cls-10" x="697.16" y="727.43" width="3" height="17.7"/><rect class="cls-10" x="697.16" y="748.13" width="3" height="17.7"/><rect class="cls-10" x="697.16" y="768.83" width="3" height="17.7"/><rect class="cls-10" x="697.16" y="789.53" width="3" height="17.7"/><rect class="cls-10" x="697.16" y="810.23" width="3" height="17.7"/><rect class="cls-10" x="697.16" y="830.93" width="3" height="17.7"/><rect class="cls-10" x="697.16" y="851.63" width="3" height="17.7"/><rect class="cls-10" x="697.16" y="872.33" width="3" height="17.7"/><rect class="cls-10" x="697.16" y="893.03" width="3" height="17.7"/><rect class="cls-10" x="697.16" y="913.73" width="3" height="17.7"/><rect class="cls-10" x="697.16" y="934.43" width="3" height="17.7"/><rect class="cls-10" x="697.16" y="955.13" width="3" height="17.7"/><rect class="cls-10" x="697.16" y="975.83" width="3" height="17.7"/><polygon class="cls-10" points="697.16 996.53 700.16 996.53 700.16 1004.99 697.16 1002.98 697.16 996.53"/><path class="cls-10" d="M679.46,638.25v3.38h-3v-2.17Z"/><rect class="cls-10" x="676.46" y="644.63" width="3" height="17.7"/><rect class="cls-10" x="676.46" y="665.33" width="3" height="17.7"/><rect class="cls-10" x="676.46" y="686.03" width="3" height="17.7"/><rect class="cls-10" x="676.46" y="706.73" width="3" height="17.7"/><rect class="cls-10" x="676.46" y="727.43" width="3" height="17.7"/><rect class="cls-10" x="676.46" y="748.13" width="3" height="17.7"/><rect class="cls-10" x="676.46" y="768.83" width="3" height="17.7"/><rect class="cls-10" x="676.46" y="789.53" width="3" height="17.7"/><rect class="cls-10" x="676.46" y="810.23" width="3" height="17.7"/><rect class="cls-10" x="676.46" y="830.93" width="3" height="17.7"/><rect class="cls-10" x="676.46" y="851.63" width="3" height="17.7"/><rect class="cls-10" x="676.46" y="872.33" width="3" height="17.7"/><rect class="cls-10" x="676.46" y="893.03" width="3" height="17.7"/><rect class="cls-10" x="676.46" y="913.73" width="3" height="17.7"/><rect class="cls-10" x="676.46" y="934.43" width="3" height="17.7"/><rect class="cls-10" x="676.46" y="955.13" width="3" height="17.7"/><polygon class="cls-10" points="676.46 975.83 679.46 975.83 679.46 991.08 676.46 989.06 676.46 975.83"/><path class="cls-10" d="M658.76,646.76v15.57h-3V648Z"/><rect class="cls-10" x="655.76" y="665.33" width="3" height="17.7"/><rect class="cls-10" x="655.76" y="686.03" width="3" height="17.7"/><path class="cls-10" d="M655.76,706.73h3v37.12q-.1-8.25-.77-16.42c-.08-1-.16-2-.26-3q-.72-7.84-2-15.6Z"/><path class="cls-10" d="M658.76,750.17v15.66H658C658.44,760.62,658.69,755.39,658.76,750.17Z"/><path class="cls-10" d="M658.76,768.83v17.7h-3v-1.78q1.28-7.93,2-15.92Z"/><rect class="cls-10" x="655.76" y="789.53" width="3" height="17.7"/><rect class="cls-10" x="655.76" y="810.23" width="3" height="17.7"/><rect class="cls-10" x="655.76" y="830.93" width="3" height="17.7"/><rect class="cls-10" x="655.76" y="851.63" width="3" height="17.7"/><rect class="cls-10" x="655.76" y="872.33" width="3" height="17.7"/><rect class="cls-10" x="655.76" y="893.03" width="3" height="17.7"/><rect class="cls-10" x="655.76" y="913.73" width="3" height="17.7"/><rect class="cls-10" x="655.76" y="934.43" width="3" height="17.7"/><rect class="cls-10" x="655.76" y="955.13" width="3" height="17.7"/><polygon class="cls-10" points="656.78 975.83 658.76 975.83 658.76 977.16 656.78 975.83"/><polygon class="cls-10" points="762.26 754.44 762.26 765.83 759.26 765.83 759.26 749.3 762.26 754.44"/><rect class="cls-10" x="759.26" y="768.83" width="3" height="17.7"/><rect class="cls-10" x="759.26" y="789.53" width="3" height="17.7"/><rect class="cls-10" x="759.26" y="810.23" width="3" height="17.7"/><rect class="cls-10" x="759.26" y="830.93" width="3" height="17.7"/><rect class="cls-10" x="759.26" y="851.63" width="3" height="17.7"/><rect class="cls-10" x="759.26" y="872.33" width="3" height="17.7"/><rect class="cls-10" x="759.26" y="893.03" width="3" height="17.7"/><rect class="cls-10" x="759.26" y="913.73" width="3" height="17.7"/><rect class="cls-10" x="759.26" y="934.43" width="3" height="17.7"/><path class="cls-10" d="M759.26,955.13h3v16.61a1.36,1.36,0,0,0-.62-.19,1.48,1.48,0,0,0-1.25.51l-.67.77-.46.53Z"/><polygon class="cls-10" points="741.56 719.01 741.56 724.43 738.56 724.43 738.56 713.88 741.56 719.01"/><rect class="cls-10" x="738.56" y="727.43" width="3" height="17.7"/><rect class="cls-10" x="738.56" y="748.13" width="3" height="17.7"/><rect class="cls-10" x="738.56" y="768.83" width="3" height="17.7"/><rect class="cls-10" x="738.56" y="789.53" width="3" height="17.7"/><rect class="cls-14" x="738.56" y="827.93" width="3" height="3"/><rect class="cls-10" x="738.56" y="810.23" width="3" height="17.7"/><rect class="cls-10" x="738.56" y="830.93" width="3" height="17.7"/><rect class="cls-10" x="738.56" y="851.63" width="3" height="17.7"/><rect class="cls-10" x="738.56" y="872.33" width="3" height="17.7"/><rect class="cls-10" x="738.56" y="893.03" width="3" height="17.7"/><rect class="cls-10" x="738.56" y="913.73" width="3" height="17.7"/><rect class="cls-10" x="738.56" y="934.43" width="3" height="17.7"/><rect class="cls-10" x="738.56" y="955.13" width="3" height="17.7"/><polygon class="cls-10" points="738.56 996.53 739.06 996.53 738.56 997.11 738.56 996.53"/><rect class="cls-10" x="738.56" y="975.83" width="3" height="17.7"/><polygon class="cls-10" points="720.54 683.03 717.86 683.03 717.86 678.45 720.54 683.03"/><rect class="cls-10" x="717.86" y="686.03" width="3" height="17.7"/><rect class="cls-10" x="717.86" y="706.73" width="3" height="17.7"/><rect class="cls-10" x="717.86" y="727.43" width="3" height="17.7"/><rect class="cls-10" x="717.86" y="748.13" width="3" height="17.7"/><rect class="cls-10" x="717.86" y="768.83" width="3" height="17.7"/><rect class="cls-10" x="717.86" y="789.53" width="3" height="17.7"/><rect class="cls-10" x="717.86" y="810.23" width="3" height="17.7"/><rect class="cls-10" x="717.86" y="830.93" width="3" height="17.7"/><rect class="cls-10" x="717.86" y="851.63" width="3" height="17.7"/><rect class="cls-10" x="717.86" y="872.33" width="3" height="17.7"/><rect class="cls-10" x="717.86" y="893.03" width="3" height="17.7"/><rect class="cls-10" x="717.86" y="913.73" width="3" height="17.7"/><rect class="cls-10" x="717.86" y="934.43" width="3" height="17.7"/><rect class="cls-10" x="717.86" y="955.13" width="3" height="17.7"/><rect class="cls-10" x="717.86" y="975.83" width="3" height="17.7"/><polygon class="cls-10" points="717.86 996.53 720.86 996.53 720.86 1017.42 720.04 1018.36 717.86 1016.89 717.86 996.53"/><polygon class="cls-10" points="824.36 646.56 824.36 662.33 821.36 662.33 821.36 643.87 822.21 644.63 824.36 646.56"/><rect class="cls-10" x="821.36" y="665.33" width="3" height="17.7"/><rect class="cls-10" x="821.36" y="686.03" width="3" height="17.7"/><rect class="cls-10" x="821.36" y="706.73" width="3" height="17.7"/><rect class="cls-10" x="821.36" y="727.43" width="3" height="17.7"/><rect class="cls-10" x="821.36" y="748.13" width="3" height="17.7"/><rect class="cls-10" x="821.36" y="768.83" width="3" height="17.7"/><rect class="cls-10" x="821.36" y="789.53" width="3" height="17.7"/><rect class="cls-10" x="821.36" y="810.23" width="3" height="17.7"/><rect class="cls-10" x="821.36" y="830.93" width="3" height="17.7"/><rect class="cls-10" x="821.36" y="851.63" width="3" height="17.7"/><rect class="cls-10" x="821.36" y="872.33" width="3" height="17.7"/><rect class="cls-10" x="821.36" y="893.03" width="3" height="17.7"/><rect class="cls-10" x="821.36" y="913.73" width="3" height="17.7"/><polygon class="cls-10" points="821.36 934.43 824.36 934.43 824.36 937.15 821.36 948.44 821.36 934.43"/><rect class="cls-14" x="800.66" y="827.93" width="3" height="3"/><polygon class="cls-10" points="803.66 693.25 803.66 703.73 800.66 703.73 800.66 702.14 803.66 693.25"/><rect class="cls-10" x="800.66" y="706.73" width="3" height="17.7"/><rect class="cls-10" x="800.66" y="727.43" width="3" height="17.7"/><rect class="cls-10" x="800.66" y="748.13" width="3" height="17.7"/><rect class="cls-10" x="800.66" y="768.83" width="3" height="17.7"/><rect class="cls-10" x="800.66" y="789.53" width="3" height="17.7"/><rect class="cls-10" x="800.66" y="810.23" width="3" height="17.7"/><rect class="cls-10" x="800.66" y="830.93" width="3" height="17.7"/><rect class="cls-10" x="800.66" y="851.63" width="3" height="17.7"/><rect class="cls-10" x="800.66" y="872.33" width="3" height="17.7"/><rect class="cls-10" x="800.66" y="893.03" width="3" height="17.7"/><rect class="cls-10" x="800.66" y="913.73" width="3" height="17.7"/><rect class="cls-10" x="800.66" y="934.43" width="3" height="17.7"/><rect class="cls-10" x="800.66" y="955.13" width="3" height="17.7"/><rect class="cls-10" x="800.66" y="975.83" width="3" height="17.7"/><polygon class="cls-10" points="800.66 996.53 803.66 996.53 803.66 1003.12 800.66 1006.83 800.66 996.53"/><rect class="cls-14" x="779.96" y="848.63" width="3" height="3"/><polygon class="cls-10" points="782.96 754.57 782.96 765.83 779.96 765.83 779.96 763.46 782.96 754.57"/><rect class="cls-10" x="779.96" y="768.83" width="3" height="17.7"/><rect class="cls-10" x="779.96" y="789.53" width="3" height="17.7"/><rect class="cls-10" x="779.96" y="810.23" width="3" height="17.7"/><rect class="cls-10" x="779.96" y="830.93" width="3" height="17.7"/><rect class="cls-10" x="779.96" y="851.63" width="3" height="17.7"/><rect class="cls-10" x="779.96" y="872.33" width="3" height="17.7"/><rect class="cls-10" x="779.96" y="893.03" width="3" height="17.7"/><rect class="cls-10" x="779.96" y="913.73" width="3" height="17.7"/><rect class="cls-10" x="779.96" y="934.43" width="3" height="17.7"/><rect class="cls-10" x="779.96" y="955.13" width="3" height="17.7"/><rect class="cls-10" x="779.96" y="975.83" width="3" height="17.7"/><polygon class="cls-10" points="779.96 996.53 782.96 996.53 782.96 1003.91 779.96 999.2 779.96 996.53"/><path class="cls-10" d="M845.06,671.15V683h-3v-17.7h1.71Q844.46,668.2,845.06,671.15Z"/><rect class="cls-10" x="842.06" y="686.03" width="3" height="17.7"/><rect class="cls-10" x="842.06" y="706.73" width="3" height="17.7"/><rect class="cls-10" x="842.06" y="727.43" width="3" height="17.7"/><rect class="cls-10" x="842.06" y="748.13" width="3" height="17.7"/><rect class="cls-10" x="842.06" y="768.83" width="3" height="17.7"/><rect class="cls-10" x="842.06" y="789.53" width="3" height="17.7"/><rect class="cls-10" x="842.06" y="810.23" width="3" height="17.7"/><rect class="cls-10" x="842.06" y="830.93" width="3" height="17.7"/><polygon class="cls-10" points="842.06 851.63 845.06 851.63 845.06 859.22 842.38 869.33 842.06 870.52 842.06 851.63"/><rect class="cls-14" x="738.56" y="952.13" width="3" height="3"/><rect class="cls-14" x="717.86" y="952.13" width="3" height="3"/><rect class="cls-14" x="697.16" y="952.13" width="3" height="3"/><rect class="cls-14" x="676.46" y="952.13" width="3" height="3"/><rect class="cls-14" x="655.76" y="952.13" width="3" height="3"/><polygon class="cls-10" points="648.93 952.13 655.76 952.13 655.76 955.13 649.26 955.13 648.93 952.13"/><rect class="cls-10" x="658.76" y="952.13" width="17.7" height="3"/><rect class="cls-10" x="679.46" y="952.13" width="17.7" height="3"/><rect class="cls-10" x="700.16" y="952.13" width="17.7" height="3"/><rect class="cls-10" x="720.86" y="952.13" width="17.7" height="3"/><rect class="cls-14" x="800.66" y="952.13" width="3" height="3"/><rect class="cls-14" x="779.96" y="952.13" width="3" height="3"/><rect class="cls-14" x="759.26" y="952.13" width="3" height="3"/><rect class="cls-10" x="741.56" y="952.13" width="17.7" height="3"/><rect class="cls-10" x="762.26" y="952.13" width="17.7" height="3"/><rect class="cls-10" x="782.96" y="952.13" width="17.7" height="3"/><path class="cls-10" d="M820.38,952.13a1.86,1.86,0,0,0,0,.33l0,2.67H803.66v-3Z"/><polygon class="cls-14" points="658.76 972.83 658.76 975.83 656.78 975.83 655.76 975.14 655.76 972.83 658.76 972.83"/><polygon class="cls-10" points="652.32 972.83 655.76 972.83 655.76 975.14 652.32 972.83"/><rect class="cls-14" x="676.46" y="972.83" width="3" height="3"/><rect class="cls-10" x="658.76" y="972.83" width="17.7" height="3"/><rect class="cls-14" x="697.16" y="972.83" width="3" height="3"/><rect class="cls-10" x="679.46" y="972.83" width="17.7" height="3"/><rect class="cls-14" x="717.86" y="972.83" width="3" height="3"/><rect class="cls-10" x="700.16" y="972.83" width="17.7" height="3"/><rect class="cls-14" x="738.56" y="972.83" width="3" height="3"/><rect class="cls-10" x="720.86" y="972.83" width="17.7" height="3"/><polygon class="cls-10" points="759.72 972.83 759.26 973.36 757.1 975.83 741.56 975.83 741.56 972.83 759.72 972.83"/><rect class="cls-14" x="779.96" y="972.83" width="3" height="3"/><polygon class="cls-10" points="763.17 972.83 779.96 972.83 779.96 975.83 765.08 975.83 763.17 972.83"/><rect class="cls-14" x="800.66" y="972.83" width="3" height="3"/><rect class="cls-10" x="782.96" y="972.83" width="17.7" height="3"/><polygon class="cls-10" points="820.13 972.83 820.1 975.83 803.66 975.83 803.66 972.83 820.13 972.83"/><polygon class="cls-14" points="741.56 993.53 741.56 993.67 739.06 996.53 738.56 996.53 738.56 993.53 741.56 993.53"/><rect class="cls-14" x="717.86" y="993.53" width="3" height="3"/><rect class="cls-14" x="697.16" y="993.53" width="3" height="3"/><polygon class="cls-10" points="683.11 993.53 697.16 993.53 697.16 996.53 687.57 996.53 683.11 993.53"/><rect class="cls-10" x="700.16" y="993.53" width="17.7" height="3"/><rect class="cls-10" x="720.86" y="993.53" width="17.7" height="3"/><polygon class="cls-10" points="741.68 993.53 741.56 993.67 741.56 993.53 741.68 993.53"/><rect class="cls-14" x="800.66" y="993.53" width="3" height="3"/><rect class="cls-14" x="779.96" y="993.53" width="3" height="3"/><polygon class="cls-10" points="776.35 993.53 779.96 993.53 779.96 996.53 778.26 996.53 776.35 993.53"/><rect class="cls-10" x="782.96" y="993.53" width="17.7" height="3"/><polygon class="cls-10" points="811.43 993.53 809 996.53 803.66 996.53 803.66 993.53 811.43 993.53"/><rect class="cls-14" x="655.76" y="890.03" width="3" height="3"/><polygon class="cls-10" points="642.06 890.03 655.76 890.03 655.76 893.03 642.39 893.03 642.06 890.03"/><rect class="cls-14" x="676.46" y="890.03" width="3" height="3"/><rect class="cls-10" x="658.76" y="890.03" width="17.7" height="3"/><rect class="cls-14" x="697.16" y="890.03" width="3" height="3"/><rect class="cls-10" x="679.46" y="890.03" width="17.7" height="3"/><rect class="cls-14" x="717.86" y="890.03" width="3" height="3"/><rect class="cls-10" x="700.16" y="890.03" width="17.7" height="3"/><rect class="cls-14" x="738.56" y="890.03" width="3" height="3"/><rect class="cls-10" x="720.86" y="890.03" width="17.7" height="3"/><rect class="cls-14" x="759.26" y="890.03" width="3" height="3"/><rect class="cls-10" x="741.56" y="890.03" width="17.7" height="3"/><rect class="cls-14" x="779.96" y="890.03" width="3" height="3"/><rect class="cls-10" x="762.26" y="890.03" width="17.7" height="3"/><rect class="cls-14" x="800.66" y="890.03" width="3" height="3"/><rect class="cls-10" x="782.96" y="890.03" width="17.7" height="3"/><rect class="cls-14" x="821.36" y="890.03" width="3" height="3"/><rect class="cls-10" x="803.66" y="890.03" width="17.7" height="3"/><polygon class="cls-10" points="836.88 890.03 836.08 893.03 824.36 893.03 824.36 890.03 836.88 890.03"/><rect class="cls-14" x="738.56" y="910.73" width="3" height="3"/><rect class="cls-14" x="717.86" y="910.73" width="3" height="3"/><rect class="cls-14" x="697.16" y="910.73" width="3" height="3"/><rect class="cls-14" x="676.46" y="910.73" width="3" height="3"/><rect class="cls-14" x="655.76" y="910.73" width="3" height="3"/><polygon class="cls-10" points="644.35 910.73 655.76 910.73 655.76 913.73 644.68 913.73 644.35 910.73"/><rect class="cls-10" x="658.76" y="910.73" width="17.7" height="3"/><rect class="cls-10" x="679.46" y="910.73" width="17.7" height="3"/><rect class="cls-10" x="700.16" y="910.73" width="17.7" height="3"/><rect class="cls-10" x="720.86" y="910.73" width="17.7" height="3"/><rect class="cls-14" x="821.36" y="910.73" width="3" height="3"/><rect class="cls-14" x="800.66" y="910.73" width="3" height="3"/><rect class="cls-14" x="779.96" y="910.73" width="3" height="3"/><rect class="cls-14" x="759.26" y="910.73" width="3" height="3"/><rect class="cls-10" x="741.56" y="910.73" width="17.7" height="3"/><rect class="cls-10" x="762.26" y="910.73" width="17.7" height="3"/><rect class="cls-10" x="782.96" y="910.73" width="17.7" height="3"/><rect class="cls-10" x="803.66" y="910.73" width="17.7" height="3"/><polygon class="cls-10" points="831.38 910.73 830.58 913.73 824.36 913.73 824.36 910.73 831.38 910.73"/><rect class="cls-14" x="655.76" y="931.43" width="3" height="3"/><polygon class="cls-10" points="655.76 931.43 655.76 934.43 646.97 934.43 646.64 931.43 655.76 931.43"/><rect class="cls-14" x="676.46" y="931.43" width="3" height="3"/><rect class="cls-10" x="658.76" y="931.43" width="17.7" height="3"/><rect class="cls-14" x="697.16" y="931.43" width="3" height="3"/><rect class="cls-10" x="679.46" y="931.43" width="17.7" height="3"/><rect class="cls-14" x="717.86" y="931.43" width="3" height="3"/><rect class="cls-10" x="700.16" y="931.43" width="17.7" height="3"/><rect class="cls-14" x="738.56" y="931.43" width="3" height="3"/><rect class="cls-10" x="720.86" y="931.43" width="17.7" height="3"/><rect class="cls-14" x="759.26" y="931.43" width="3" height="3"/><rect class="cls-10" x="741.56" y="931.43" width="17.7" height="3"/><rect class="cls-14" x="779.96" y="931.43" width="3" height="3"/><rect class="cls-10" x="762.26" y="931.43" width="17.7" height="3"/><rect class="cls-14" x="800.66" y="931.43" width="3" height="3"/><rect class="cls-10" x="782.96" y="931.43" width="17.7" height="3"/><rect class="cls-14" x="821.36" y="931.43" width="3" height="3"/><rect class="cls-10" x="803.66" y="931.43" width="17.7" height="3"/><polygon class="cls-10" points="825.88 931.43 825.08 934.43 824.36 934.43 824.36 931.43 825.88 931.43"/><rect class="cls-14" x="759.26" y="827.93" width="3" height="3"/><rect class="cls-14" x="717.86" y="827.93" width="3" height="3"/><rect class="cls-14" x="697.16" y="827.93" width="3" height="3"/><rect class="cls-14" x="676.46" y="827.93" width="3" height="3"/><rect class="cls-14" x="655.76" y="827.93" width="3" height="3"/><path class="cls-10" d="M644.77,827.93h11v3H643.68C644.06,829.93,644.42,828.93,644.77,827.93Z"/><rect class="cls-10" x="658.76" y="827.93" width="17.7" height="3"/><rect class="cls-10" x="679.46" y="827.93" width="17.7" height="3"/><rect class="cls-10" x="700.16" y="827.93" width="17.7" height="3"/><rect class="cls-10" x="720.86" y="827.93" width="17.7" height="3"/><rect class="cls-10" x="741.56" y="827.93" width="17.7" height="3"/><rect class="cls-14" x="779.96" y="827.93" width="3" height="3"/><rect class="cls-10" x="762.26" y="827.93" width="17.7" height="3"/><rect class="cls-10" x="782.96" y="827.93" width="17.7" height="3"/><rect class="cls-14" x="842.06" y="827.93" width="3" height="3"/><rect class="cls-14" x="821.36" y="827.93" width="3" height="3"/><rect class="cls-10" x="803.66" y="827.93" width="17.7" height="3"/><rect class="cls-10" x="824.36" y="827.93" width="17.7" height="3"/><polygon class="cls-10" points="853.37 827.93 852.58 830.93 845.06 830.93 845.06 827.93 853.37 827.93"/><rect class="cls-14" x="759.26" y="848.63" width="3" height="3"/><rect class="cls-14" x="738.56" y="848.63" width="3" height="3"/><rect class="cls-14" x="717.86" y="848.63" width="3" height="3"/><rect class="cls-14" x="697.16" y="848.63" width="3" height="3"/><rect class="cls-14" x="676.46" y="848.63" width="3" height="3"/><rect class="cls-14" x="655.76" y="848.63" width="3" height="3"/><polygon class="cls-10" points="637.48 848.63 655.76 848.63 655.76 851.63 637.82 851.63 637.48 848.63"/><rect class="cls-10" x="658.76" y="848.63" width="17.7" height="3"/><rect class="cls-10" x="679.46" y="848.63" width="17.7" height="3"/><rect class="cls-10" x="700.16" y="848.63" width="17.7" height="3"/><rect class="cls-10" x="720.86" y="848.63" width="17.7" height="3"/><rect class="cls-10" x="741.56" y="848.63" width="17.7" height="3"/><rect class="cls-10" x="762.26" y="848.63" width="17.7" height="3"/><rect class="cls-14" x="800.66" y="848.63" width="3" height="3"/><rect class="cls-10" x="782.96" y="848.63" width="17.7" height="3"/><rect class="cls-14" x="821.36" y="848.63" width="3" height="3"/><rect class="cls-10" x="803.66" y="848.63" width="17.7" height="3"/><rect class="cls-14" x="842.06" y="848.63" width="3" height="3"/><rect class="cls-10" x="824.36" y="848.63" width="17.7" height="3"/><polygon class="cls-10" points="847.87 848.63 847.08 851.63 845.06 851.63 845.06 848.63 847.87 848.63"/><rect class="cls-14" x="655.76" y="869.33" width="3" height="3"/><polygon class="cls-10" points="639.77 869.33 655.76 869.33 655.76 872.33 640.11 872.33 639.77 869.33"/><rect class="cls-14" x="676.46" y="869.33" width="3" height="3"/><rect class="cls-10" x="658.76" y="869.33" width="17.7" height="3"/><rect class="cls-14" x="697.16" y="869.33" width="3" height="3"/><rect class="cls-10" x="679.46" y="869.33" width="17.7" height="3"/><rect class="cls-14" x="717.86" y="869.33" width="3" height="3"/><rect class="cls-10" x="700.16" y="869.33" width="17.7" height="3"/><rect class="cls-14" x="738.56" y="869.33" width="3" height="3"/><rect class="cls-10" x="720.86" y="869.33" width="17.7" height="3"/><rect class="cls-14" x="821.36" y="869.33" width="3" height="3"/><rect class="cls-14" x="800.66" y="869.33" width="3" height="3"/><rect class="cls-14" x="779.96" y="869.33" width="3" height="3"/><rect class="cls-14" x="759.26" y="869.33" width="3" height="3"/><rect class="cls-10" x="741.56" y="869.33" width="17.7" height="3"/><rect class="cls-10" x="762.26" y="869.33" width="17.7" height="3"/><rect class="cls-10" x="782.96" y="869.33" width="17.7" height="3"/><rect class="cls-10" x="803.66" y="869.33" width="17.7" height="3"/><polygon class="cls-10" points="842.38 869.33 842.06 870.52 841.58 872.33 824.36 872.33 824.36 869.33 842.38 869.33"/><rect class="cls-14" x="655.76" y="786.53" width="3" height="3"/><path class="cls-10" d="M655.47,786.53h.29v3H655C655.13,788.53,655.31,787.53,655.47,786.53Z"/><rect class="cls-14" x="676.46" y="786.53" width="3" height="3"/><rect class="cls-10" x="658.76" y="786.53" width="17.7" height="3"/><rect class="cls-14" x="697.16" y="786.53" width="3" height="3"/><rect class="cls-10" x="679.46" y="786.53" width="17.7" height="3"/><rect class="cls-14" x="717.86" y="786.53" width="3" height="3"/><rect class="cls-10" x="700.16" y="786.53" width="17.7" height="3"/><rect class="cls-14" x="738.56" y="786.53" width="3" height="3"/><rect class="cls-10" x="720.86" y="786.53" width="17.7" height="3"/><rect class="cls-14" x="759.26" y="786.53" width="3" height="3"/><rect class="cls-10" x="741.56" y="786.53" width="17.7" height="3"/><rect class="cls-14" x="779.96" y="786.53" width="3" height="3"/><rect class="cls-10" x="762.26" y="786.53" width="17.7" height="3"/><rect class="cls-14" x="800.66" y="786.53" width="3" height="3"/><rect class="cls-10" x="782.96" y="786.53" width="17.7" height="3"/><rect class="cls-14" x="821.36" y="786.53" width="3" height="3"/><rect class="cls-10" x="803.66" y="786.53" width="17.7" height="3"/><rect class="cls-14" x="842.06" y="786.53" width="3" height="3"/><rect class="cls-10" x="824.36" y="786.53" width="17.7" height="3"/><path class="cls-10" d="M857.86,789.53h-12.8v-3h12.72C857.81,787.53,857.83,788.53,857.86,789.53Z"/><rect class="cls-14" x="655.76" y="807.23" width="3" height="3"/><path class="cls-10" d="M651.09,807.23h4.67v3H650.3C650.57,809.23,650.83,808.23,651.09,807.23Z"/><rect class="cls-14" x="676.46" y="807.23" width="3" height="3"/><rect class="cls-10" x="658.76" y="807.23" width="17.7" height="3"/><rect class="cls-14" x="697.16" y="807.23" width="3" height="3"/><rect class="cls-10" x="679.46" y="807.23" width="17.7" height="3"/><rect class="cls-14" x="717.86" y="807.23" width="3" height="3"/><rect class="cls-10" x="700.16" y="807.23" width="17.7" height="3"/><rect class="cls-14" x="738.56" y="807.23" width="3" height="3"/><rect class="cls-10" x="720.86" y="807.23" width="17.7" height="3"/><rect class="cls-14" x="759.26" y="807.23" width="3" height="3"/><rect class="cls-10" x="741.56" y="807.23" width="17.7" height="3"/><rect class="cls-14" x="842.06" y="807.23" width="3" height="3"/><rect class="cls-14" x="821.36" y="807.23" width="3" height="3"/><rect class="cls-14" x="800.66" y="807.23" width="3" height="3"/><rect class="cls-14" x="779.96" y="807.23" width="3" height="3"/><rect class="cls-10" x="762.26" y="807.23" width="17.7" height="3"/><rect class="cls-10" x="782.96" y="807.23" width="17.7" height="3"/><rect class="cls-10" x="803.66" y="807.23" width="17.7" height="3"/><rect class="cls-10" x="824.36" y="807.23" width="17.7" height="3"/><path class="cls-10" d="M858,807.23l0,3H845.06v-3Z"/><rect class="cls-14" x="676.46" y="745.13" width="3" height="3"/><rect class="cls-10" x="658.76" y="745.13" width="17.7" height="3"/><rect class="cls-14" x="697.16" y="745.13" width="3" height="3"/><rect class="cls-10" x="679.46" y="745.13" width="17.7" height="3"/><rect class="cls-14" x="717.86" y="745.13" width="3" height="3"/><rect class="cls-10" x="700.16" y="745.13" width="17.7" height="3"/><rect class="cls-14" x="738.56" y="745.13" width="3" height="3"/><rect class="cls-10" x="720.86" y="745.13" width="17.7" height="3"/><polygon class="cls-10" points="758.58 748.13 741.56 748.13 741.56 745.13 756.82 745.13 758.58 748.13"/><rect class="cls-14" x="800.66" y="745.13" width="3" height="3"/><polygon class="cls-10" points="786.15 745.13 800.66 745.13 800.66 748.13 785.14 748.13 786.15 745.13"/><rect class="cls-14" x="821.36" y="745.13" width="3" height="3"/><rect class="cls-10" x="803.66" y="745.13" width="17.7" height="3"/><rect class="cls-14" x="842.06" y="745.13" width="3" height="3"/><rect class="cls-10" x="824.36" y="745.13" width="17.7" height="3"/><path class="cls-10" d="M855.44,748.13H845.06v-3h10.09C855.25,746.13,855.35,747.13,855.44,748.13Z"/><rect class="cls-14" x="738.56" y="765.83" width="3" height="3"/><rect class="cls-14" x="717.86" y="765.83" width="3" height="3"/><rect class="cls-14" x="697.16" y="765.83" width="3" height="3"/><rect class="cls-14" x="676.46" y="765.83" width="3" height="3"/><path class="cls-14" d="M658.76,765.83v3h-1c.09-1,.18-2,.25-3Z"/><rect class="cls-10" x="658.76" y="765.83" width="17.7" height="3"/><rect class="cls-10" x="679.46" y="765.83" width="17.7" height="3"/><rect class="cls-10" x="700.16" y="765.83" width="17.7" height="3"/><rect class="cls-10" x="720.86" y="765.83" width="17.7" height="3"/><rect class="cls-14" x="759.26" y="765.83" width="3" height="3"/><rect class="cls-10" x="741.56" y="765.83" width="17.7" height="3"/><polygon class="cls-10" points="770.67 768.83 762.26 768.83 762.26 765.83 768.92 765.83 770.67 768.83"/><rect class="cls-14" x="842.06" y="765.83" width="3" height="3"/><rect class="cls-14" x="821.36" y="765.83" width="3" height="3"/><rect class="cls-14" x="800.66" y="765.83" width="3" height="3"/><rect class="cls-14" x="779.96" y="765.83" width="3" height="3"/><polygon class="cls-10" points="779.16 765.83 779.96 765.83 779.96 768.83 778.15 768.83 779.16 765.83"/><rect class="cls-10" x="782.96" y="765.83" width="17.7" height="3"/><rect class="cls-10" x="803.66" y="765.83" width="17.7" height="3"/><rect class="cls-10" x="824.36" y="765.83" width="17.7" height="3"/><path class="cls-10" d="M857,768.83h-12v-3h11.78C856.9,766.83,857,767.83,857,768.83Z"/><rect class="cls-14" x="697.16" y="683.03" width="3" height="3"/><rect class="cls-14" x="676.46" y="683.03" width="3" height="3"/><rect class="cls-14" x="655.76" y="683.03" width="3" height="3"/><path class="cls-10" d="M650.16,683h5.6v3H651C650.7,685,650.44,684,650.16,683Z"/><rect class="cls-10" x="658.76" y="683.03" width="17.7" height="3"/><rect class="cls-10" x="679.46" y="683.03" width="17.7" height="3"/><rect class="cls-14" x="717.86" y="683.03" width="3" height="3"/><rect class="cls-10" x="700.16" y="683.03" width="17.7" height="3"/><polygon class="cls-10" points="722.29 686.03 720.86 686.03 720.86 683.59 722.29 686.03"/><rect class="cls-14" x="842.06" y="683.03" width="3" height="3"/><rect class="cls-14" x="821.36" y="683.03" width="3" height="3"/><polygon class="cls-10" points="807.11 683.03 821.36 683.03 821.36 686.03 806.1 686.03 807.11 683.03"/><rect class="cls-10" x="824.36" y="683.03" width="17.7" height="3"/><path class="cls-10" d="M847.74,686h-2.68v-3h2.2Z"/><rect class="cls-14" x="655.76" y="703.73" width="3" height="3"/><path class="cls-10" d="M654.89,703.73h.87v3h-.35C655.25,705.73,655.07,704.73,654.89,703.73Z"/><rect class="cls-14" x="676.46" y="703.73" width="3" height="3"/><rect class="cls-10" x="658.76" y="703.73" width="17.7" height="3"/><rect class="cls-14" x="697.16" y="703.73" width="3" height="3"/><rect class="cls-10" x="679.46" y="703.73" width="17.7" height="3"/><rect class="cls-14" x="717.86" y="703.73" width="3" height="3"/><rect class="cls-10" x="700.16" y="703.73" width="17.7" height="3"/><polygon class="cls-10" points="734.38 706.73 720.86 706.73 720.86 703.73 732.63 703.73 734.38 706.73"/><rect class="cls-14" x="800.66" y="703.73" width="3" height="3"/><polygon class="cls-10" points="800.12 703.73 800.66 703.73 800.66 706.73 799.11 706.73 800.12 703.73"/><rect class="cls-14" x="821.36" y="703.73" width="3" height="3"/><rect class="cls-10" x="803.66" y="703.73" width="17.7" height="3"/><rect class="cls-14" x="842.06" y="703.73" width="3" height="3"/><rect class="cls-10" x="824.36" y="703.73" width="17.7" height="3"/><path class="cls-10" d="M850.61,706.73h-5.55v-3h5.17C850.36,704.72,850.48,705.72,850.61,706.73Z"/><rect class="cls-14" x="738.56" y="724.43" width="3" height="3"/><rect class="cls-14" x="717.86" y="724.43" width="3" height="3"/><rect class="cls-14" x="697.16" y="724.43" width="3" height="3"/><rect class="cls-14" x="676.46" y="724.43" width="3" height="3"/><path class="cls-10" d="M676.46,724.43v3H658c-.08-1-.16-2-.26-3Z"/><rect class="cls-10" x="679.46" y="724.43" width="17.7" height="3"/><rect class="cls-10" x="700.16" y="724.43" width="17.7" height="3"/><rect class="cls-10" x="720.86" y="724.43" width="17.7" height="3"/><polygon class="cls-10" points="746.48 727.43 741.56 727.43 741.56 724.43 744.73 724.43 746.48 727.43"/><rect class="cls-14" x="842.06" y="724.43" width="3" height="3"/><rect class="cls-14" x="821.36" y="724.43" width="3" height="3"/><rect class="cls-14" x="800.66" y="724.43" width="3" height="3"/><polygon class="cls-10" points="793.14 724.43 800.66 724.43 800.66 727.43 792.12 727.43 793.14 724.43"/><rect class="cls-10" x="803.66" y="724.43" width="17.7" height="3"/><rect class="cls-10" x="824.36" y="724.43" width="17.7" height="3"/><path class="cls-10" d="M853.12,727.43h-8.06v-3h7.7Z"/><rect class="cls-14" x="676.46" y="641.63" width="3" height="3"/><path class="cls-10" d="M671.18,641.63h5.28v3H663.93l1.88-.78Z"/><polygon class="cls-10" points="698.1 644.63 679.46 644.63 679.46 641.63 696.34 641.63 697.16 643.03 698.1 644.63"/><rect class="cls-14" x="676.46" y="662.33" width="3" height="3"/><rect class="cls-14" x="655.76" y="662.33" width="3" height="3"/><path class="cls-10" d="M643.44,662.33h12.32v3H644.54C644.18,664.33,643.81,663.33,643.44,662.33Z"/><rect class="cls-10" x="658.76" y="662.33" width="17.7" height="3"/><rect class="cls-14" x="697.16" y="662.33" width="3" height="3"/><rect class="cls-10" x="679.46" y="662.33" width="17.7" height="3"/><polygon class="cls-10" points="710.19 665.33 700.16 665.33 700.16 662.33 708.44 662.33 710.19 665.33"/><rect class="cls-14" x="821.36" y="662.33" width="3" height="3"/><polygon class="cls-10" points="814.1 662.33 821.36 662.33 821.36 665.33 813.09 665.33 814.1 662.33"/><path class="cls-14" d="M843.77,665.33h-1.71v-2.9l1.3,1.17C843.5,664.17,843.64,664.75,843.77,665.33Z"/><rect class="cls-10" x="824.36" y="662.33" width="17.7" height="3"/><polyline class="cls-4" points="775.04 773.35 811.08 835.98 807.08 895.38 757.74 973.04"/><path class="cls-22" d="M961.05,821.75l-8.6,71.64a43.18,43.18,0,0,1-42.88,38h0c-32.2,0-53.08-34-38.54-62.69l48.79-96.39,16.55,65.58h6.4A18.41,18.41,0,0,0,961,822.35Z"/><path class="cls-22" d="M899.25,793.57,906.64,767a6.65,6.65,0,0,1,8.46-4.55h0a6.65,6.65,0,0,1,3.81,9.48l-13,24.3a3.59,3.59,0,0,1-3.16,1.89h0A3.59,3.59,0,0,1,899.25,793.57Z"/><path class="cls-22" d="M907.86,798.12l19.88-34.28a7.48,7.48,0,0,1,9-1.1,7.38,7.38,0,0,1,3.36,6.79,8.84,8.84,0,0,1,14.43,5.71l-13.19,22.88H907.86Z"/><polygon class="cls-9" points="904.92 798.12 930.94 746.57 937.75 746.57 907.86 798.12 904.92 798.12"/><line class="cls-23" x1="940.11" y1="769.53" x2="924.26" y2="798.12"/><path class="cls-22" d="M965.44,781.44,961,822.06a17.81,17.81,0,0,1-17.7,15.87h-7l14.39-39.81h-9.41l13.19-22.88,3.93-.55A6.14,6.14,0,0,1,965.44,781.44Z"/><path class="cls-23" d="M961.49,788l-6.22,6.44a11.9,11.9,0,0,1-8.58,3.65h-5.34"/><polygon class="cls-7" points="950.76 798.12 887.56 973.04 738.15 973.04 801.35 798.12 950.76 798.12"/><path class="cls-12" d="M870.09,871.46,874,860.31h-7.83l-1.83,5.13-7.86-8.27-32.27,19.42-11.12,31.3h50.72L875,876.59Zm-29.92,6.68h7.2l-2.54,7.12h-7.19Zm.78,18h-7.19l2.52-7.11h7.2Zm10.92,0h-6.19l2.53-7.11h6.2Zm3.89-10.92h-6.19l2.53-7.12h6.2Z"/><polygon class="cls-24" points="855.41 889.07 852.88 896.18 845.68 896.18 848.22 889.07 855.41 889.07"/><polygon class="cls-24" points="843.49 889.07 840.96 896.18 833.76 896.18 836.28 889.07 843.49 889.07"/><polygon class="cls-24" points="847.38 878.14 844.84 885.26 837.64 885.26 840.17 878.14 847.38 878.14"/><polygon class="cls-24" points="859.3 878.14 856.76 885.26 849.58 885.26 852.11 878.14 859.3 878.14"/><path class="cls-22" d="M639.77,882.53l74.7,40.59s14-23.61,49.73-22.17l-4.58,12.83,66.14-14.93a3.44,3.44,0,0,1,3.87,1.89h0a3.43,3.43,0,0,1-1.48,4.5l-13.47,7.24,12.81-6.54a8,8,0,0,1,10.36,2.77l.8,1.22a8,8,0,0,1-1.53,10.47l-44,37.39,25-9.54a3.54,3.54,0,0,1,4.25,1.43h0a3.52,3.52,0,0,1-1.22,4.92l-40.64,23.68a33.62,33.62,0,0,1-17.51,4.58l-41-.71a91.25,91.25,0,0,1-17.5-2L572.51,952a288.16,288.16,0,0,1,31.21-38.56C617.66,898.78,627.89,891,639.77,882.53Z"/><line class="cls-4" x1="814.68" y1="912.48" x2="794.09" y2="922.15"/><line class="cls-4" x1="794.09" y1="936.86" x2="838.16" y2="909.17"/><path class="cls-19" d="M749.32,565.92s-28.94-36.88-23.23-57.5c4.8-17.29,35.9-51.55,62.67-33.42,0,0,29.92-10.66,48.54-4.16,16.2,5.66,21.58,20.12,20.6,28.56-1.07,9.14-10,15.72-9.63,13.73l-2-12.63L796,483.91c.25,3.68.84,19-10.18,32.7a47.17,47.17,0,0,1-23.58,15.54Z"/><path class="cls-22" d="M728.08,607l21.24-41.09c-12.38-15.32-14.36-30.75-8-36.44,4.6-4.13,13.08-5.33,20.91,2.67a47.17,47.17,0,0,0,23.58-15.54c11-13.67,10.43-29,10.18-32.7,15.37,4.82,35,11.77,50.36,16.59l5.07,32.68A37.62,37.62,0,0,1,848,555.62a209.48,209.48,0,0,0-15.87,44A11.84,11.84,0,0,1,818,608.36l-10.28-2.25,1.55,11.47L772,637.84Z"/><path class="cls-4" d="M807.75,606.11l-28.94-12.43A19,19,0,0,1,768,581.23l-2.46-9"/><path class="cls-4" d="M834.11,507.74,846,557.11a3.89,3.89,0,0,1-3.78,4.8H831.93"/><circle class="cls-2" cx="809.71" cy="532.25" r="14.92"/><ellipse class="cls-2" cx="851.46" cy="533.25" rx="10.55" ry="13.92"/><path class="cls-4" d="M824.63,532.25a17,17,0,0,1,9.71-2.07,16.59,16.59,0,0,1,6.58,2.07"/><path class="cls-4" d="M830.74,571.41a16.84,16.84,0,0,1-10.09-3.31,16.56,16.56,0,0,1-4.94-6.19"/><line class="cls-4" x1="749.68" y1="537.53" x2="757.01" y2="545.75"/><circle class="cls-12" cx="811.45" cy="532.25" r="2.13"/><circle class="cls-12" cx="848.73" cy="532.25" r="1.86"/><path class="cls-19" d="M741.32,553.24a16.55,16.55,0,0,0,15.31,8.67l-7.31,4Z"/><polygon class="cls-8" points="778.81 593.68 809.3 617.58 807.75 606.11 778.81 593.68"/></g></svg>